<?xml version="1.0" encoding="utf-8" standalone="no"?>
<!DOCTYPE svg PUBLIC "-//W3C//DTD SVG 1.1//EN"
  "http://www.w3.org/Graphics/SVG/1.1/DTD/svg11.dtd">
<!-- Created with matplotlib (https://matplotlib.org/) -->
<svg height="344.16pt" version="1.1" viewBox="0 0 559.44 344.16" width="559.44pt" xmlns="http://www.w3.org/2000/svg" xmlns:xlink="http://www.w3.org/1999/xlink">
 <defs>
  <style type="text/css">
*{stroke-linecap:butt;stroke-linejoin:round;}
  </style>
 </defs>
 <g id="figure_1">
  <g id="patch_1">
   <path d="M 0 344.16 
L 559.44 344.16 
L 559.44 0 
L 0 0 
z
" style="fill:#ffffff;"/>
  </g>
  <g id="axes_1">
   <g id="patch_2">
    <path d="M 29.591697 316.301727 
L 535.116522 316.301727 
L 535.116522 17.721723 
L 29.591697 17.721723 
z
" style="fill:#ffffff;"/>
   </g>
   <g id="matplotlib.axis_1">
    <g id="xtick_1">
     <g id="line2d_1">
      <path clip-path="url(#p53d0bc1bf8)" d="M 29.591697 316.301727 
L 29.591697 17.721723 
" style="fill:none;stroke:#b0b0b0;stroke-linecap:square;stroke-width:0.8;"/>
     </g>
     <g id="line2d_2">
      <defs>
       <path d="M 0 0 
L 0 3.5 
" id="m5b56897fad" style="stroke:#000000;stroke-width:0.8;"/>
      </defs>
      <g>
       <use style="stroke:#000000;stroke-width:0.8;" x="29.591697" xlink:href="#m5b56897fad" y="316.301727"/>
      </g>
     </g>
     <g id="text_1">
      <!-- 0.0 -->
      <defs>
       <path d="M 31.78125 66.40625 
Q 24.171875 66.40625 20.328125 58.90625 
Q 16.5 51.421875 16.5 36.375 
Q 16.5 21.390625 20.328125 13.890625 
Q 24.171875 6.390625 31.78125 6.390625 
Q 39.453125 6.390625 43.28125 13.890625 
Q 47.125 21.390625 47.125 36.375 
Q 47.125 51.421875 43.28125 58.90625 
Q 39.453125 66.40625 31.78125 66.40625 
z
M 31.78125 74.21875 
Q 44.046875 74.21875 50.515625 64.515625 
Q 56.984375 54.828125 56.984375 36.375 
Q 56.984375 17.96875 50.515625 8.265625 
Q 44.046875 -1.421875 31.78125 -1.421875 
Q 19.53125 -1.421875 13.0625 8.265625 
Q 6.59375 17.96875 6.59375 36.375 
Q 6.59375 54.828125 13.0625 64.515625 
Q 19.53125 74.21875 31.78125 74.21875 
z
" id="DejaVuSans-48"/>
       <path d="M 10.6875 12.40625 
L 21 12.40625 
L 21 0 
L 10.6875 0 
z
" id="DejaVuSans-46"/>
      </defs>
      <g transform="translate(21.640135 330.900165)scale(0.1 -0.1)">
       <use xlink:href="#DejaVuSans-48"/>
       <use x="63.623047" xlink:href="#DejaVuSans-46"/>
       <use x="95.410156" xlink:href="#DejaVuSans-48"/>
      </g>
     </g>
    </g>
    <g id="xtick_2">
     <g id="line2d_3">
      <path clip-path="url(#p53d0bc1bf8)" d="M 130.696662 316.301727 
L 130.696662 17.721723 
" style="fill:none;stroke:#b0b0b0;stroke-linecap:square;stroke-width:0.8;"/>
     </g>
     <g id="line2d_4">
      <g>
       <use style="stroke:#000000;stroke-width:0.8;" x="130.696662" xlink:href="#m5b56897fad" y="316.301727"/>
      </g>
     </g>
     <g id="text_2">
      <!-- 0.2 -->
      <defs>
       <path d="M 19.1875 8.296875 
L 53.609375 8.296875 
L 53.609375 0 
L 7.328125 0 
L 7.328125 8.296875 
Q 12.9375 14.109375 22.625 23.890625 
Q 32.328125 33.6875 34.8125 36.53125 
Q 39.546875 41.84375 41.421875 45.53125 
Q 43.3125 49.21875 43.3125 52.78125 
Q 43.3125 58.59375 39.234375 62.25 
Q 35.15625 65.921875 28.609375 65.921875 
Q 23.96875 65.921875 18.8125 64.3125 
Q 13.671875 62.703125 7.8125 59.421875 
L 7.8125 69.390625 
Q 13.765625 71.78125 18.9375 73 
Q 24.125 74.21875 28.421875 74.21875 
Q 39.75 74.21875 46.484375 68.546875 
Q 53.21875 62.890625 53.21875 53.421875 
Q 53.21875 48.921875 51.53125 44.890625 
Q 49.859375 40.875 45.40625 35.40625 
Q 44.1875 33.984375 37.640625 27.21875 
Q 31.109375 20.453125 19.1875 8.296875 
z
" id="DejaVuSans-50"/>
      </defs>
      <g transform="translate(122.745099 330.900165)scale(0.1 -0.1)">
       <use xlink:href="#DejaVuSans-48"/>
       <use x="63.623047" xlink:href="#DejaVuSans-46"/>
       <use x="95.410156" xlink:href="#DejaVuSans-50"/>
      </g>
     </g>
    </g>
    <g id="xtick_3">
     <g id="line2d_5">
      <path clip-path="url(#p53d0bc1bf8)" d="M 231.801627 316.301727 
L 231.801627 17.721723 
" style="fill:none;stroke:#b0b0b0;stroke-linecap:square;stroke-width:0.8;"/>
     </g>
     <g id="line2d_6">
      <g>
       <use style="stroke:#000000;stroke-width:0.8;" x="231.801627" xlink:href="#m5b56897fad" y="316.301727"/>
      </g>
     </g>
     <g id="text_3">
      <!-- 0.4 -->
      <defs>
       <path d="M 37.796875 64.3125 
L 12.890625 25.390625 
L 37.796875 25.390625 
z
M 35.203125 72.90625 
L 47.609375 72.90625 
L 47.609375 25.390625 
L 58.015625 25.390625 
L 58.015625 17.1875 
L 47.609375 17.1875 
L 47.609375 0 
L 37.796875 0 
L 37.796875 17.1875 
L 4.890625 17.1875 
L 4.890625 26.703125 
z
" id="DejaVuSans-52"/>
      </defs>
      <g transform="translate(223.850064 330.900165)scale(0.1 -0.1)">
       <use xlink:href="#DejaVuSans-48"/>
       <use x="63.623047" xlink:href="#DejaVuSans-46"/>
       <use x="95.410156" xlink:href="#DejaVuSans-52"/>
      </g>
     </g>
    </g>
    <g id="xtick_4">
     <g id="line2d_7">
      <path clip-path="url(#p53d0bc1bf8)" d="M 332.906592 316.301727 
L 332.906592 17.721723 
" style="fill:none;stroke:#b0b0b0;stroke-linecap:square;stroke-width:0.8;"/>
     </g>
     <g id="line2d_8">
      <g>
       <use style="stroke:#000000;stroke-width:0.8;" x="332.906592" xlink:href="#m5b56897fad" y="316.301727"/>
      </g>
     </g>
     <g id="text_4">
      <!-- 0.6 -->
      <defs>
       <path d="M 33.015625 40.375 
Q 26.375 40.375 22.484375 35.828125 
Q 18.609375 31.296875 18.609375 23.390625 
Q 18.609375 15.53125 22.484375 10.953125 
Q 26.375 6.390625 33.015625 6.390625 
Q 39.65625 6.390625 43.53125 10.953125 
Q 47.40625 15.53125 47.40625 23.390625 
Q 47.40625 31.296875 43.53125 35.828125 
Q 39.65625 40.375 33.015625 40.375 
z
M 52.59375 71.296875 
L 52.59375 62.3125 
Q 48.875 64.0625 45.09375 64.984375 
Q 41.3125 65.921875 37.59375 65.921875 
Q 27.828125 65.921875 22.671875 59.328125 
Q 17.53125 52.734375 16.796875 39.40625 
Q 19.671875 43.65625 24.015625 45.921875 
Q 28.375 48.1875 33.59375 48.1875 
Q 44.578125 48.1875 50.953125 41.515625 
Q 57.328125 34.859375 57.328125 23.390625 
Q 57.328125 12.15625 50.6875 5.359375 
Q 44.046875 -1.421875 33.015625 -1.421875 
Q 20.359375 -1.421875 13.671875 8.265625 
Q 6.984375 17.96875 6.984375 36.375 
Q 6.984375 53.65625 15.1875 63.9375 
Q 23.390625 74.21875 37.203125 74.21875 
Q 40.921875 74.21875 44.703125 73.484375 
Q 48.484375 72.75 52.59375 71.296875 
z
" id="DejaVuSans-54"/>
      </defs>
      <g transform="translate(324.955029 330.900165)scale(0.1 -0.1)">
       <use xlink:href="#DejaVuSans-48"/>
       <use x="63.623047" xlink:href="#DejaVuSans-46"/>
       <use x="95.410156" xlink:href="#DejaVuSans-54"/>
      </g>
     </g>
    </g>
    <g id="xtick_5">
     <g id="line2d_9">
      <path clip-path="url(#p53d0bc1bf8)" d="M 434.011557 316.301727 
L 434.011557 17.721723 
" style="fill:none;stroke:#b0b0b0;stroke-linecap:square;stroke-width:0.8;"/>
     </g>
     <g id="line2d_10">
      <g>
       <use style="stroke:#000000;stroke-width:0.8;" x="434.011557" xlink:href="#m5b56897fad" y="316.301727"/>
      </g>
     </g>
     <g id="text_5">
      <!-- 0.8 -->
      <defs>
       <path d="M 31.78125 34.625 
Q 24.75 34.625 20.71875 30.859375 
Q 16.703125 27.09375 16.703125 20.515625 
Q 16.703125 13.921875 20.71875 10.15625 
Q 24.75 6.390625 31.78125 6.390625 
Q 38.8125 6.390625 42.859375 10.171875 
Q 46.921875 13.96875 46.921875 20.515625 
Q 46.921875 27.09375 42.890625 30.859375 
Q 38.875 34.625 31.78125 34.625 
z
M 21.921875 38.8125 
Q 15.578125 40.375 12.03125 44.71875 
Q 8.5 49.078125 8.5 55.328125 
Q 8.5 64.0625 14.71875 69.140625 
Q 20.953125 74.21875 31.78125 74.21875 
Q 42.671875 74.21875 48.875 69.140625 
Q 55.078125 64.0625 55.078125 55.328125 
Q 55.078125 49.078125 51.53125 44.71875 
Q 48 40.375 41.703125 38.8125 
Q 48.828125 37.15625 52.796875 32.3125 
Q 56.78125 27.484375 56.78125 20.515625 
Q 56.78125 9.90625 50.3125 4.234375 
Q 43.84375 -1.421875 31.78125 -1.421875 
Q 19.734375 -1.421875 13.25 4.234375 
Q 6.78125 9.90625 6.78125 20.515625 
Q 6.78125 27.484375 10.78125 32.3125 
Q 14.796875 37.15625 21.921875 38.8125 
z
M 18.3125 54.390625 
Q 18.3125 48.734375 21.84375 45.5625 
Q 25.390625 42.390625 31.78125 42.390625 
Q 38.140625 42.390625 41.71875 45.5625 
Q 45.3125 48.734375 45.3125 54.390625 
Q 45.3125 60.0625 41.71875 63.234375 
Q 38.140625 66.40625 31.78125 66.40625 
Q 25.390625 66.40625 21.84375 63.234375 
Q 18.3125 60.0625 18.3125 54.390625 
z
" id="DejaVuSans-56"/>
      </defs>
      <g transform="translate(426.059994 330.900165)scale(0.1 -0.1)">
       <use xlink:href="#DejaVuSans-48"/>
       <use x="63.623047" xlink:href="#DejaVuSans-46"/>
       <use x="95.410156" xlink:href="#DejaVuSans-56"/>
      </g>
     </g>
    </g>
    <g id="xtick_6">
     <g id="line2d_11">
      <path clip-path="url(#p53d0bc1bf8)" d="M 535.116522 316.301727 
L 535.116522 17.721723 
" style="fill:none;stroke:#b0b0b0;stroke-linecap:square;stroke-width:0.8;"/>
     </g>
     <g id="line2d_12">
      <g>
       <use style="stroke:#000000;stroke-width:0.8;" x="535.116522" xlink:href="#m5b56897fad" y="316.301727"/>
      </g>
     </g>
     <g id="text_6">
      <!-- 1.0 -->
      <defs>
       <path d="M 12.40625 8.296875 
L 28.515625 8.296875 
L 28.515625 63.921875 
L 10.984375 60.40625 
L 10.984375 69.390625 
L 28.421875 72.90625 
L 38.28125 72.90625 
L 38.28125 8.296875 
L 54.390625 8.296875 
L 54.390625 0 
L 12.40625 0 
z
" id="DejaVuSans-49"/>
      </defs>
      <g transform="translate(527.164959 330.900165)scale(0.1 -0.1)">
       <use xlink:href="#DejaVuSans-49"/>
       <use x="63.623047" xlink:href="#DejaVuSans-46"/>
       <use x="95.410156" xlink:href="#DejaVuSans-48"/>
      </g>
     </g>
    </g>
   </g>
   <g id="matplotlib.axis_2">
    <g id="ytick_1">
     <g id="line2d_13">
      <path clip-path="url(#p53d0bc1bf8)" d="M 29.591697 316.301727 
L 535.116522 316.301727 
" style="fill:none;stroke:#b0b0b0;stroke-linecap:square;stroke-width:0.8;"/>
     </g>
     <g id="line2d_14">
      <defs>
       <path d="M 0 0 
L -3.5 0 
" id="me97b38f378" style="stroke:#000000;stroke-width:0.8;"/>
      </defs>
      <g>
       <use style="stroke:#000000;stroke-width:0.8;" x="29.591697" xlink:href="#me97b38f378" y="316.301727"/>
      </g>
     </g>
     <g id="text_7">
      <!-- 0.0 -->
      <g transform="translate(6.688572 320.100946)scale(0.1 -0.1)">
       <use xlink:href="#DejaVuSans-48"/>
       <use x="63.623047" xlink:href="#DejaVuSans-46"/>
       <use x="95.410156" xlink:href="#DejaVuSans-48"/>
      </g>
     </g>
    </g>
    <g id="ytick_2">
     <g id="line2d_15">
      <path clip-path="url(#p53d0bc1bf8)" d="M 29.591697 256.585726 
L 535.116522 256.585726 
" style="fill:none;stroke:#b0b0b0;stroke-linecap:square;stroke-width:0.8;"/>
     </g>
     <g id="line2d_16">
      <g>
       <use style="stroke:#000000;stroke-width:0.8;" x="29.591697" xlink:href="#me97b38f378" y="256.585726"/>
      </g>
     </g>
     <g id="text_8">
      <!-- 0.2 -->
      <g transform="translate(6.688572 260.384945)scale(0.1 -0.1)">
       <use xlink:href="#DejaVuSans-48"/>
       <use x="63.623047" xlink:href="#DejaVuSans-46"/>
       <use x="95.410156" xlink:href="#DejaVuSans-50"/>
      </g>
     </g>
    </g>
    <g id="ytick_3">
     <g id="line2d_17">
      <path clip-path="url(#p53d0bc1bf8)" d="M 29.591697 196.869726 
L 535.116522 196.869726 
" style="fill:none;stroke:#b0b0b0;stroke-linecap:square;stroke-width:0.8;"/>
     </g>
     <g id="line2d_18">
      <g>
       <use style="stroke:#000000;stroke-width:0.8;" x="29.591697" xlink:href="#me97b38f378" y="196.869726"/>
      </g>
     </g>
     <g id="text_9">
      <!-- 0.4 -->
      <g transform="translate(6.688572 200.668944)scale(0.1 -0.1)">
       <use xlink:href="#DejaVuSans-48"/>
       <use x="63.623047" xlink:href="#DejaVuSans-46"/>
       <use x="95.410156" xlink:href="#DejaVuSans-52"/>
      </g>
     </g>
    </g>
    <g id="ytick_4">
     <g id="line2d_19">
      <path clip-path="url(#p53d0bc1bf8)" d="M 29.591697 137.153725 
L 535.116522 137.153725 
" style="fill:none;stroke:#b0b0b0;stroke-linecap:square;stroke-width:0.8;"/>
     </g>
     <g id="line2d_20">
      <g>
       <use style="stroke:#000000;stroke-width:0.8;" x="29.591697" xlink:href="#me97b38f378" y="137.153725"/>
      </g>
     </g>
     <g id="text_10">
      <!-- 0.6 -->
      <g transform="translate(6.688572 140.952943)scale(0.1 -0.1)">
       <use xlink:href="#DejaVuSans-48"/>
       <use x="63.623047" xlink:href="#DejaVuSans-46"/>
       <use x="95.410156" xlink:href="#DejaVuSans-54"/>
      </g>
     </g>
    </g>
    <g id="ytick_5">
     <g id="line2d_21">
      <path clip-path="url(#p53d0bc1bf8)" d="M 29.591697 77.437724 
L 535.116522 77.437724 
" style="fill:none;stroke:#b0b0b0;stroke-linecap:square;stroke-width:0.8;"/>
     </g>
     <g id="line2d_22">
      <g>
       <use style="stroke:#000000;stroke-width:0.8;" x="29.591697" xlink:href="#me97b38f378" y="77.437724"/>
      </g>
     </g>
     <g id="text_11">
      <!-- 0.8 -->
      <g transform="translate(6.688572 81.236943)scale(0.1 -0.1)">
       <use xlink:href="#DejaVuSans-48"/>
       <use x="63.623047" xlink:href="#DejaVuSans-46"/>
       <use x="95.410156" xlink:href="#DejaVuSans-56"/>
      </g>
     </g>
    </g>
    <g id="ytick_6">
     <g id="line2d_23">
      <path clip-path="url(#p53d0bc1bf8)" d="M 29.591697 17.721723 
L 535.116522 17.721723 
" style="fill:none;stroke:#b0b0b0;stroke-linecap:square;stroke-width:0.8;"/>
     </g>
     <g id="line2d_24">
      <g>
       <use style="stroke:#000000;stroke-width:0.8;" x="29.591697" xlink:href="#me97b38f378" y="17.721723"/>
      </g>
     </g>
     <g id="text_12">
      <!-- 1.0 -->
      <g transform="translate(6.688572 21.520942)scale(0.1 -0.1)">
       <use xlink:href="#DejaVuSans-49"/>
       <use x="63.623047" xlink:href="#DejaVuSans-46"/>
       <use x="95.410156" xlink:href="#DejaVuSans-48"/>
      </g>
     </g>
    </g>
   </g>
   <g id="line2d_25">
    <path clip-path="url(#p53d0bc1bf8)" d="M 29.591697 316.301727 
L 34.646945 310.368655 
L 39.702194 304.485373 
L 44.757442 298.656838 
L 49.81269 292.899343 
L 54.867938 287.19453 
L 59.923187 281.551482 
L 64.978435 275.963908 
L 70.033683 270.444492 
L 75.088931 264.976875 
L 80.14418 259.560954 
L 85.199428 254.223102 
L 90.254676 248.927811 
L 95.309924 243.714733 
L 100.365173 238.541948 
L 105.420421 233.435397 
L 110.475669 228.382884 
L 115.530917 223.404104 
L 120.586165 218.474579 
L 125.641414 213.604964 
L 130.696662 208.810554 
L 135.75191 204.052351 
L 140.807158 199.364862 
L 145.862407 194.733608 
L 150.917655 190.163076 
L 155.972903 185.652941 
L 161.028151 181.199512 
L 166.0834 176.814587 
L 171.138648 172.491905 
L 176.193896 168.213662 
L 181.249144 164.00882 
L 186.304393 159.84752 
L 191.359641 155.770791 
L 196.414889 151.729039 
L 201.470137 147.759884 
L 206.525386 143.853582 
L 211.580634 140.004708 
L 216.635882 136.202331 
L 221.69113 132.478447 
L 226.746379 128.808117 
L 231.801627 125.180624 
L 236.856875 121.630688 
L 241.912123 118.147625 
L 246.967372 114.709987 
L 252.02262 111.338073 
L 257.077868 108.013568 
L 262.133116 104.764306 
L 267.188365 101.562693 
L 272.243613 98.428679 
L 277.298861 95.350507 
L 282.354109 92.33594 
L 287.409358 89.391979 
L 292.464606 86.491999 
L 297.519854 83.655362 
L 302.575102 80.878161 
L 307.630351 78.15123 
L 312.685599 75.506254 
L 317.740847 72.895915 
L 322.796095 70.360087 
L 327.851344 67.889825 
L 332.906592 65.472655 
L 337.96184 63.113098 
L 343.017088 60.807101 
L 348.072337 58.576051 
L 353.127585 56.388159 
L 358.182833 54.270733 
L 363.238081 52.21944 
L 368.29333 50.212253 
L 373.348578 48.264605 
L 378.403826 46.394346 
L 383.459074 44.566025 
L 388.514323 42.817243 
L 393.569571 41.113866 
L 398.624819 39.465229 
L 403.680067 37.898866 
L 408.735316 36.369022 
L 413.790564 34.903553 
L 418.845812 33.500053 
L 423.90106 32.153201 
L 428.956309 30.871612 
L 434.011557 29.63087 
L 439.066805 28.486572 
L 444.122053 27.380373 
L 449.177302 26.322767 
L 454.23255 25.360972 
L 459.287798 24.416975 
L 464.343046 23.55805 
L 469.398295 22.74387 
L 474.453543 22.017487 
L 479.508791 21.317457 
L 484.564039 20.702486 
L 489.619288 20.120741 
L 494.674536 19.606927 
L 499.729784 19.17012 
L 504.785032 18.774801 
L 509.840281 18.45295 
L 514.895529 18.178331 
L 519.950777 17.98186 
L 525.006025 17.827727 
L 530.061273 17.738278 
L 535.116522 17.721723 
" style="fill:none;stroke:#ff0000;stroke-linecap:square;stroke-width:1.5;"/>
   </g>
   <g id="line2d_26">
    <path clip-path="url(#p53d0bc1bf8)" d="M 29.591697 316.301727 
L 34.646945 304.541906 
L 39.702194 293.122867 
L 44.757442 282.043381 
L 49.81269 271.311814 
L 54.867938 260.9071 
L 59.923187 250.823866 
L 64.978435 241.055905 
L 70.033683 231.604824 
L 75.088931 222.452208 
L 80.14418 213.584217 
L 85.199428 205.027766 
L 90.254676 196.736771 
L 95.309924 188.747234 
L 100.365173 181.007845 
L 105.420421 173.538102 
L 110.475669 166.329815 
L 115.530917 159.379264 
L 120.586165 152.673516 
L 125.641414 146.20461 
L 130.696662 139.987773 
L 135.75191 133.97637 
L 140.807158 128.198591 
L 145.862407 122.63566 
L 150.917655 117.28616 
L 155.972903 112.145431 
L 161.028151 107.202772 
L 166.0834 102.461728 
L 171.138648 97.925662 
L 176.193896 93.547342 
L 181.249144 89.366386 
L 186.304393 85.342962 
L 191.359641 81.523491 
L 196.414889 77.836509 
L 201.470137 74.330611 
L 206.525386 70.97981 
L 211.580634 67.779775 
L 216.635882 64.710197 
L 221.69113 61.804776 
L 226.746379 59.033068 
L 231.801627 56.367119 
L 236.856875 53.856866 
L 241.912123 51.479213 
L 246.967372 49.203783 
L 252.02262 47.056796 
L 257.077868 44.997736 
L 262.133116 43.075548 
L 267.188365 41.238294 
L 272.243613 39.512027 
L 277.298861 37.878317 
L 282.354109 36.339887 
L 287.409358 34.908119 
L 292.464606 33.541729 
L 297.519854 32.262101 
L 302.575102 31.062503 
L 307.630351 29.924145 
L 312.685599 28.890704 
L 317.740847 27.891547 
L 322.796095 26.978559 
L 327.851344 26.133638 
L 332.906592 25.341408 
L 337.96184 24.607632 
L 343.017088 23.917443 
L 348.072337 23.29689 
L 353.127585 22.707794 
L 358.182833 22.176521 
L 363.238081 21.696105 
L 368.29333 21.239052 
L 373.348578 20.822634 
L 378.403826 20.460481 
L 383.459074 20.11509 
L 388.514323 19.822514 
L 393.569571 19.545314 
L 398.624819 19.288989 
L 403.680067 19.084382 
L 408.735316 18.878877 
L 413.790564 18.700578 
L 418.845812 18.545441 
L 423.90106 18.405932 
L 428.956309 18.289665 
L 434.011557 18.169413 
L 439.066805 18.101562 
L 444.122053 18.024434 
L 449.177302 17.946976 
L 454.23255 17.917602 
L 459.287798 17.85385 
L 464.343046 17.824501 
L 469.398295 17.786775 
L 474.453543 17.783596 
L 479.508791 17.751711 
L 484.564039 17.749772 
L 489.619288 17.72469 
L 494.674536 17.710761 
L 499.729784 17.716529 
L 504.785032 17.705727 
L 509.840281 17.710077 
L 514.895529 17.702711 
L 519.950777 17.714416 
L 525.006025 17.709041 
L 530.061273 17.708774 
L 535.116522 17.721723 
" style="fill:none;stroke:#bfbf00;stroke-linecap:square;stroke-width:1.5;"/>
   </g>
   <g id="line2d_27">
    <path clip-path="url(#p53d0bc1bf8)" d="M 29.591697 316.301727 
L 34.646945 293.226717 
L 39.702194 271.718577 
L 44.757442 251.687481 
L 49.81269 233.063535 
L 54.867938 215.752867 
L 59.923187 199.659756 
L 64.978435 184.728796 
L 70.033683 170.885592 
L 75.088931 158.055896 
L 80.14418 146.159688 
L 85.199428 135.176827 
L 90.254676 125.00697 
L 95.309924 115.636752 
L 100.365173 106.971168 
L 105.420421 98.985504 
L 110.475669 91.642964 
L 115.530917 84.88116 
L 120.586165 78.675262 
L 125.641414 72.968353 
L 130.696662 67.751176 
L 135.75191 62.94997 
L 140.807158 58.562689 
L 145.862407 54.55009 
L 150.917655 50.886792 
L 155.972903 47.547953 
L 161.028151 44.503445 
L 166.0834 41.735472 
L 171.138648 39.244345 
L 176.193896 36.947377 
L 181.249144 34.884253 
L 186.304393 32.998524 
L 191.359641 31.332149 
L 196.414889 29.791936 
L 201.470137 28.428709 
L 206.525386 27.199194 
L 211.580634 26.096614 
L 216.635882 25.090445 
L 221.69113 24.212238 
L 226.746379 23.426679 
L 231.801627 22.693363 
L 236.856875 22.069673 
L 241.912123 21.524649 
L 246.967372 21.022606 
L 252.02262 20.593033 
L 257.077868 20.185062 
L 262.133116 19.857595 
L 267.188365 19.548817 
L 272.243613 19.288173 
L 277.298861 19.056102 
L 282.354109 18.854953 
L 287.409358 18.699116 
L 292.464606 18.544078 
L 297.519854 18.413891 
L 302.575102 18.302897 
L 307.630351 18.19173 
L 312.685599 18.12957 
L 317.740847 18.041811 
L 322.796095 17.985753 
L 327.851344 17.943598 
L 332.906592 17.901559 
L 337.96184 17.868257 
L 343.017088 17.82892 
L 348.072337 17.813004 
L 353.127585 17.783659 
L 358.182833 17.769465 
L 363.238081 17.765335 
L 368.29333 17.745465 
L 373.348578 17.72961 
L 378.403826 17.733104 
L 383.459074 17.720452 
L 388.514323 17.729671 
L 393.569571 17.725088 
L 398.624819 17.713904 
L 403.680067 17.729231 
L 408.735316 17.719823 
L 413.790564 17.715667 
L 418.845812 17.714384 
L 423.90106 17.710027 
L 428.956309 17.71179 
L 434.011557 17.693881 
L 439.066805 17.71422 
L 444.122053 17.712413 
L 449.177302 17.698708 
L 454.23255 17.722835 
L 459.287798 17.703404 
L 464.343046 17.710368 
L 469.398295 17.701944 
L 474.453543 17.722036 
L 479.508791 17.708264 
L 484.564039 17.720116 
L 489.619288 17.705247 
L 494.674536 17.698634 
L 499.729784 17.709429 
L 504.785032 17.701901 
L 509.840281 17.708237 
L 514.895529 17.70196 
L 519.950777 17.714179 
L 525.006025 17.708995 
L 530.061273 17.708772 
L 535.116522 17.721723 
" style="fill:none;stroke:#00bfbf;stroke-linecap:square;stroke-width:1.5;"/>
   </g>
   <g id="line2d_28">
    <path clip-path="url(#p53d0bc1bf8)" d="M 29.591697 316.301727 
L 34.646945 271.896876 
L 39.702194 233.731143 
L 44.757442 200.979926 
L 49.81269 172.944293 
L 54.867938 148.979441 
L 59.923187 128.49229 
L 64.978435 111.048969 
L 70.033683 96.207257 
L 75.088931 83.604124 
L 80.14418 72.896806 
L 85.199428 63.858736 
L 90.254676 56.206713 
L 95.309924 49.773581 
L 100.365173 44.341793 
L 105.420421 39.779763 
L 110.475669 35.975374 
L 115.530917 32.778207 
L 120.586165 30.127401 
L 125.641414 27.906905 
L 130.696662 26.079347 
L 135.75191 24.545868 
L 140.807158 23.281889 
L 145.862407 22.237543 
L 150.917655 21.378585 
L 155.972903 20.675157 
L 161.028151 20.096359 
L 166.0834 19.623502 
L 171.138648 19.265669 
L 176.193896 18.93693 
L 181.249144 18.68802 
L 186.304393 18.468345 
L 191.359641 18.328577 
L 196.414889 18.180486 
L 201.470137 18.085737 
L 206.525386 18.007003 
L 211.580634 17.946573 
L 216.635882 17.88112 
L 221.69113 17.850466 
L 226.746379 17.826735 
L 231.801627 17.775075 
L 236.856875 17.76154 
L 241.912123 17.760564 
L 246.967372 17.742169 
L 252.02262 17.742083 
L 257.077868 17.713529 
L 262.133116 17.721538 
L 267.188365 17.70774 
L 272.243613 17.706132 
L 277.298861 17.700809 
L 282.354109 17.697545 
L 287.409358 17.714097 
L 292.464606 17.70854 
L 297.519854 17.707668 
L 302.575102 17.708186 
L 307.630351 17.69278 
L 312.685599 17.712746 
L 317.740847 17.694958 
L 322.796095 17.698419 
L 327.851344 17.706655 
L 332.906592 17.707096 
L 337.96184 17.709479 
L 343.017088 17.699941 
L 348.072337 17.708823 
L 353.127585 17.699999 
L 358.182833 17.702701 
L 363.238081 17.712403 
L 368.29333 17.703786 
L 373.348578 17.697037 
L 378.403826 17.707845 
L 383.459074 17.701028 
L 388.514323 17.714867 
L 393.569571 17.713912 
L 398.624819 17.705552 
L 403.680067 17.72306 
L 408.735316 17.715316 
L 413.790564 17.712417 
L 418.845812 17.712073 
L 423.90106 17.708409 
L 428.956309 17.710675 
L 434.011557 17.693127 
L 439.066805 17.713721 
L 444.122053 17.712089 
L 449.177302 17.698503 
L 454.23255 17.722709 
L 459.287798 17.703329 
L 464.343046 17.710325 
L 469.398295 17.70192 
L 474.453543 17.722023 
L 479.508791 17.708257 
L 484.564039 17.720113 
L 489.619288 17.705246 
L 494.674536 17.698634 
L 499.729784 17.709429 
L 504.785032 17.701901 
L 509.840281 17.708237 
L 514.895529 17.70196 
L 519.950777 17.714179 
L 525.006025 17.708995 
L 530.061273 17.708772 
L 535.116522 17.721723 
" style="fill:none;stroke:#0000ff;stroke-linecap:square;stroke-width:1.5;"/>
   </g>
   <g id="line2d_29">
    <path clip-path="url(#p53d0bc1bf8)" d="M 29.591697 316.301727 
L 34.646945 233.972392 
L 39.702194 173.830133 
L 44.757442 130.024161 
L 49.81269 98.247005 
L 54.867938 75.284698 
L 59.923187 58.68694 
L 64.978435 46.788931 
L 70.033683 38.268319 
L 75.088931 32.196228 
L 80.14418 27.856506 
L 85.199428 24.806122 
L 90.254676 22.638078 
L 95.309924 21.130814 
L 100.365173 20.059464 
L 105.420421 19.309758 
L 110.475669 18.809988 
L 115.530917 18.44784 
L 120.586165 18.217343 
L 125.641414 18.046686 
L 130.696662 17.947168 
L 135.75191 17.863405 
L 140.807158 17.80957 
L 145.862407 17.771472 
L 150.917655 17.745906 
L 155.972903 17.730071 
L 161.028151 17.71658 
L 166.0834 17.706677 
L 171.138648 17.727141 
L 176.193896 17.70588 
L 181.249144 17.706365 
L 186.304393 17.688248 
L 191.359641 17.710881 
L 196.414889 17.693067 
L 201.470137 17.702574 
L 206.525386 17.706899 
L 211.580634 17.712436 
L 216.635882 17.699163 
L 221.69113 17.709641 
L 226.746379 17.718209 
L 231.801627 17.691783 
L 236.856875 17.697911 
L 241.912123 17.71218 
L 246.967372 17.705551 
L 252.02262 17.71451 
L 257.077868 17.692868 
L 262.133116 17.706143 
L 267.188365 17.696329 
L 272.243613 17.697722 
L 277.298861 17.694649 
L 282.354109 17.693059 
L 287.409358 17.710853 
L 292.464606 17.706209 
L 297.519854 17.706005 
L 302.575102 17.707007 
L 307.630351 17.691951 
L 312.685599 17.712168 
L 317.740847 17.694558 
L 322.796095 17.698145 
L 327.851344 17.706469 
L 332.906592 17.706971 
L 337.96184 17.709396 
L 343.017088 17.699886 
L 348.072337 17.708787 
L 353.127585 17.699976 
L 358.182833 17.702686 
L 363.238081 17.712394 
L 368.29333 17.703781 
L 373.348578 17.697033 
L 378.403826 17.707843 
L 383.459074 17.701027 
L 388.514323 17.714867 
L 393.569571 17.713912 
L 398.624819 17.705552 
L 403.680067 17.72306 
L 408.735316 17.715316 
L 413.790564 17.712417 
L 418.845812 17.712073 
L 423.90106 17.708409 
L 428.956309 17.710675 
L 434.011557 17.693127 
L 439.066805 17.713721 
L 444.122053 17.712089 
L 449.177302 17.698503 
L 454.23255 17.722709 
L 459.287798 17.703329 
L 464.343046 17.710325 
L 469.398295 17.70192 
L 474.453543 17.722023 
L 479.508791 17.708257 
L 484.564039 17.720113 
L 489.619288 17.705246 
L 494.674536 17.698634 
L 499.729784 17.709429 
L 504.785032 17.701901 
L 509.840281 17.708237 
L 514.895529 17.70196 
L 519.950777 17.714179 
L 525.006025 17.708995 
L 530.061273 17.708772 
L 535.116522 17.721723 
" style="fill:none;stroke:#008000;stroke-linecap:square;stroke-width:1.5;"/>
   </g>
   <g id="patch_3">
    <path d="M 29.591697 316.301727 
L 29.591697 17.721723 
" style="fill:none;stroke:#000000;stroke-linecap:square;stroke-linejoin:miter;stroke-width:0.8;"/>
   </g>
   <g id="patch_4">
    <path d="M 535.116522 316.301727 
L 535.116522 17.721723 
" style="fill:none;stroke:#000000;stroke-linecap:square;stroke-linejoin:miter;stroke-width:0.8;"/>
   </g>
   <g id="patch_5">
    <path d="M 29.591697 316.301727 
L 535.116522 316.301727 
" style="fill:none;stroke:#000000;stroke-linecap:square;stroke-linejoin:miter;stroke-width:0.8;"/>
   </g>
   <g id="patch_6">
    <path d="M 29.591697 17.721723 
L 535.116522 17.721723 
" style="fill:none;stroke:#000000;stroke-linecap:square;stroke-linejoin:miter;stroke-width:0.8;"/>
   </g>
   <g id="legend_1">
    <g id="patch_7">
     <path d="M 469.221209 311.301727 
L 528.116522 311.301727 
Q 530.116522 311.301727 530.116522 309.301727 
L 530.116522 236.911102 
Q 530.116522 234.911102 528.116522 234.911102 
L 469.221209 234.911102 
Q 467.221209 234.911102 467.221209 236.911102 
L 467.221209 309.301727 
Q 467.221209 311.301727 469.221209 311.301727 
z
" style="fill:#ffffff;opacity:0.8;stroke:#cccccc;stroke-linejoin:miter;"/>
    </g>
    <g id="line2d_30">
     <path d="M 471.221209 243.00954 
L 491.221209 243.00954 
" style="fill:none;stroke:#ff0000;stroke-linecap:square;stroke-width:1.5;"/>
    </g>
    <g id="line2d_31"/>
    <g id="text_13">
     <!-- k=2 -->
     <defs>
      <path d="M 9.078125 75.984375 
L 18.109375 75.984375 
L 18.109375 31.109375 
L 44.921875 54.6875 
L 56.390625 54.6875 
L 27.390625 29.109375 
L 57.625 0 
L 45.90625 0 
L 18.109375 26.703125 
L 18.109375 0 
L 9.078125 0 
z
" id="DejaVuSans-107"/>
      <path d="M 10.59375 45.40625 
L 73.1875 45.40625 
L 73.1875 37.203125 
L 10.59375 37.203125 
z
M 10.59375 25.484375 
L 73.1875 25.484375 
L 73.1875 17.1875 
L 10.59375 17.1875 
z
" id="DejaVuSans-61"/>
     </defs>
     <g transform="translate(499.221209 246.50954)scale(0.1 -0.1)">
      <use xlink:href="#DejaVuSans-107"/>
      <use x="57.910156" xlink:href="#DejaVuSans-61"/>
      <use x="141.699219" xlink:href="#DejaVuSans-50"/>
     </g>
    </g>
    <g id="line2d_32">
     <path d="M 471.221209 257.687665 
L 491.221209 257.687665 
" style="fill:none;stroke:#bfbf00;stroke-linecap:square;stroke-width:1.5;"/>
    </g>
    <g id="line2d_33"/>
    <g id="text_14">
     <!-- k=4 -->
     <g transform="translate(499.221209 261.187665)scale(0.1 -0.1)">
      <use xlink:href="#DejaVuSans-107"/>
      <use x="57.910156" xlink:href="#DejaVuSans-61"/>
      <use x="141.699219" xlink:href="#DejaVuSans-52"/>
     </g>
    </g>
    <g id="line2d_34">
     <path d="M 471.221209 272.36579 
L 491.221209 272.36579 
" style="fill:none;stroke:#00bfbf;stroke-linecap:square;stroke-width:1.5;"/>
    </g>
    <g id="line2d_35"/>
    <g id="text_15">
     <!-- k=8 -->
     <g transform="translate(499.221209 275.86579)scale(0.1 -0.1)">
      <use xlink:href="#DejaVuSans-107"/>
      <use x="57.910156" xlink:href="#DejaVuSans-61"/>
      <use x="141.699219" xlink:href="#DejaVuSans-56"/>
     </g>
    </g>
    <g id="line2d_36">
     <path d="M 471.221209 287.043915 
L 491.221209 287.043915 
" style="fill:none;stroke:#0000ff;stroke-linecap:square;stroke-width:1.5;"/>
    </g>
    <g id="line2d_37"/>
    <g id="text_16">
     <!-- k=16 -->
     <g transform="translate(499.221209 290.543915)scale(0.1 -0.1)">
      <use xlink:href="#DejaVuSans-107"/>
      <use x="57.910156" xlink:href="#DejaVuSans-61"/>
      <use x="141.699219" xlink:href="#DejaVuSans-49"/>
      <use x="205.322266" xlink:href="#DejaVuSans-54"/>
     </g>
    </g>
    <g id="line2d_38">
     <path d="M 471.221209 301.72204 
L 491.221209 301.72204 
" style="fill:none;stroke:#008000;stroke-linecap:square;stroke-width:1.5;"/>
    </g>
    <g id="line2d_39"/>
    <g id="text_17">
     <!-- k=32 -->
     <defs>
      <path d="M 40.578125 39.3125 
Q 47.65625 37.796875 51.625 33 
Q 55.609375 28.21875 55.609375 21.1875 
Q 55.609375 10.40625 48.1875 4.484375 
Q 40.765625 -1.421875 27.09375 -1.421875 
Q 22.515625 -1.421875 17.65625 -0.515625 
Q 12.796875 0.390625 7.625 2.203125 
L 7.625 11.71875 
Q 11.71875 9.328125 16.59375 8.109375 
Q 21.484375 6.890625 26.8125 6.890625 
Q 36.078125 6.890625 40.9375 10.546875 
Q 45.796875 14.203125 45.796875 21.1875 
Q 45.796875 27.640625 41.28125 31.265625 
Q 36.765625 34.90625 28.71875 34.90625 
L 20.21875 34.90625 
L 20.21875 43.015625 
L 29.109375 43.015625 
Q 36.375 43.015625 40.234375 45.921875 
Q 44.09375 48.828125 44.09375 54.296875 
Q 44.09375 59.90625 40.109375 62.90625 
Q 36.140625 65.921875 28.71875 65.921875 
Q 24.65625 65.921875 20.015625 65.03125 
Q 15.375 64.15625 9.8125 62.3125 
L 9.8125 71.09375 
Q 15.4375 72.65625 20.34375 73.4375 
Q 25.25 74.21875 29.59375 74.21875 
Q 40.828125 74.21875 47.359375 69.109375 
Q 53.90625 64.015625 53.90625 55.328125 
Q 53.90625 49.265625 50.4375 45.09375 
Q 46.96875 40.921875 40.578125 39.3125 
z
" id="DejaVuSans-51"/>
     </defs>
     <g transform="translate(499.221209 305.22204)scale(0.1 -0.1)">
      <use xlink:href="#DejaVuSans-107"/>
      <use x="57.910156" xlink:href="#DejaVuSans-61"/>
      <use x="141.699219" xlink:href="#DejaVuSans-51"/>
      <use x="205.322266" xlink:href="#DejaVuSans-50"/>
     </g>
    </g>
   </g>
  </g>
 </g>
 <defs>
  <clipPath id="p53d0bc1bf8">
   <rect height="298.580004" width="505.524825" x="29.591697" y="17.721723"/>
  </clipPath>
 </defs>
</svg>
